2.8Hzhigh3min_grf.mot
version=1
nRows=25
nColumns 19
inDegrees=yes
endheader
time	1_ground_force_vx	1_ground_force_vy	1_ground_force_vz	1_ground_force_px	1_ground_force_py	1_ground_force_pz	1_ground_torque_x	1_ground_torque_y	1_ground_torque_z	2_ground_force_vx	2_ground_force_vy	2_ground_force_vz	2_ground_force_px	2_ground_force_py	2_ground_force_pz	2_ground_torque_x	2_ground_torque_y	2_ground_torque_z
            1.253500	            0.277886	            0.716004	            1.194663	           -0.233013	            0.005581	           -0.255695	           -0.220587	            0.222532	           -0.118382	            0.516185	           -0.362419	           -1.127808	           -0.232311	            0.006130	           -0.833667	           -0.206733	            0.027545	            0.019039
            1.254000	            0.460671	            1.437889	            1.013876	           -0.233013	            0.005581	           -0.255695	           -0.157183	           -0.238903	           -0.263110	            0.610028	           -0.363252	           -0.799351	           -0.232311	            0.006130	           -0.833667	           -0.225314	           -0.029239	            0.018845
            1.254500	            0.049046	            0.535104	            1.332027	           -0.233013	            0.005581	           -0.255695	           -0.132537	           -0.599892	           -0.207087	            0.470808	           -0.732056	           -0.800605	           -0.232311	            0.006130	           -0.833667	           -0.206273	           -0.095475	            0.056301
            1.255000	            0.323190	            1.798197	            1.061619	           -0.233013	            0.005581	           -0.255695	           -0.121521	           -0.452039	           -0.157200	            0.469437	           -0.363425	           -0.893147	           -0.232311	            0.006130	           -0.833667	           -0.318857	           -0.133625	            0.037364
            1.255500	            0.322684	            2.700115	            0.927916	           -0.233013	            0.005581	           -0.255695	           -0.135176	           -0.035933	           -0.193011	            0.515705	           -0.179777	           -0.704798	           -0.232311	            0.006130	           -0.833667	           -0.243698	           -0.142672	           -0.000402
            1.256000	            0.185988	            1.256980	            1.151353	           -0.233013	            0.005581	           -0.255695	           -0.237792	            0.388866	           -0.121555	            0.467382	            0.189522	           -1.031960	           -0.232311	            0.006130	           -0.833667	           -0.150197	           -0.028766	           -0.037738
            1.256500	            0.185955	            1.437246	            1.152126	           -0.233013	            0.005581	           -0.255695	           -0.238237	            0.407917	           -0.253065	            0.562308	           -0.177599	           -1.267955	           -0.232311	            0.006130	           -0.833667	           -0.094003	            0.018633	           -0.018743
            1.257000	            0.277868	            1.436870	            1.243611	           -0.233013	            0.005581	           -0.255695	           -0.185483	            0.083970	           -0.137887	            0.466779	            0.373168	           -0.890519	           -0.232311	            0.006130	           -0.833667	           -0.187972	            0.027814	           -0.037519
            1.257500	            0.048654	            1.436826	            1.244180	           -0.233013	            0.005581	           -0.255695	           -0.185146	           -0.360302	           -0.036778	            0.373867	            0.187677	           -0.609568	           -0.232311	            0.006130	           -0.833667	           -0.262781	           -0.066917	           -0.056675
            1.258000	            0.185515	            1.978633	            1.016878	           -0.233013	            0.005581	           -0.255695	           -0.213438	           -0.590934	           -0.125842	            0.563178	           -0.363421	           -0.799331	           -0.232311	            0.006130	           -0.833667	           -0.168888	           -0.057125	           -0.056681
            1.258500	            0.185158	            1.438622	            0.831135	           -0.233013	            0.005581	           -0.255695	           -0.167946	           -0.405742	           -0.200334	            0.188379	           -0.364775	           -0.799172	           -0.232311	            0.006130	           -0.833667	           -0.206146	           -0.124035	            0.112751
            1.259000	            0.368548	            0.717791	            0.781732	           -0.233013	            0.005581	           -0.255695	           -0.071730	            0.047286	           -0.190786	            0.519028	           -1.100519	           -0.708083	           -0.232311	            0.006130	           -0.833667	           -0.262654	           -0.095477	           -0.000225
            1.259500	            0.277365	            1.077322	            1.012785	           -0.233013	            0.005581	           -0.255695	           -0.138037	            0.407571	           -0.155403	            0.466820	            0.372834	           -0.796663	           -0.232311	            0.006130	           -0.833667	           -0.131514	           -0.000340	           -0.037644
            1.260000	            0.093733	            1.257945	            0.922301	           -0.233013	            0.005581	           -0.255695	           -0.171759	            0.407396	           -0.144347	            0.470164	           -0.548075	           -0.753020	           -0.232311	            0.006130	           -0.833667	           -0.187803	           -0.010265	            0.037747
            1.260500	            0.277886	            0.716004	            1.194663	           -0.233013	            0.005581	           -0.255695	           -0.089274	           -0.045259	           -0.176251	            0.374450	            0.004199	           -0.797937	           -0.232311	            0.006130	           -0.833667	           -0.225287	           -0.047809	           -0.075474
            1.261000	            0.231993	            1.617127	            1.244497	           -0.233013	            0.005581	           -0.255695	           -0.110471	           -0.415099	           -0.160972	            0.610672	           -0.547233	           -0.846936	           -0.232311	            0.006130	           -0.833667	           -0.187776	           -0.028835	           -0.056572
            1.261500	            0.323615	            0.716210	            1.148693	           -0.233013	            0.005581	           -0.255695	           -0.218530	           -0.563057	           -0.138599	            0.515020	            0.004539	           -0.751069	           -0.232311	            0.006130	           -0.833667	           -0.168735	           -0.095070	           -0.019116
            1.262000	            0.323094	            1.077527	            0.966816	           -0.233013	            0.005581	           -0.255695	           -0.248444	           -0.276685	           -0.099713	            0.612543	           -1.098674	           -1.130476	           -0.232311	            0.006130	           -0.833667	           -0.206451	           -0.057328	           -0.037815
            1.262500	            0.094140	            0.896824	            1.058323	           -0.233013	            0.005581	           -0.255695	           -0.064582	            0.194582	           -0.089119	            0.516329	           -0.363591	           -0.799311	           -0.232311	            0.006130	           -0.833667	           -0.206382	           -0.076233	           -0.037882
            1.263000	            0.277365	            1.077322	            1.012785	           -0.233013	            0.005581	           -0.255695	           -0.175724	            0.426292	           -0.211623	            0.564508	           -0.731718	           -0.800645	           -0.232311	            0.006130	           -0.833667	           -0.206384	           -0.067049	            0.037552
            1.263500	            0.139983	            0.896833	            1.058209	           -0.233013	            0.005581	           -0.255695	           -0.196043	            0.277849	           -0.105279	            0.468067	            0.005206	           -0.985689	           -0.232311	            0.006130	           -0.833667	           -0.225621	            0.055835	            0.019148
            1.264000	            0.323663	            1.076544	            1.196095	           -0.233013	            0.005581	           -0.255695	           -0.127031	           -0.119193	           -0.174532	            0.652082	            0.927127	           -1.123268	           -0.232311	            0.006130	           -0.833667	           -0.187922	            0.018227	            0.000147
            1.264500	            0.002811	            1.436817	            1.244293	           -0.233013	            0.005581	           -0.255695	           -0.241854	           -0.544477	           -0.208564	            0.375032	           -0.179280	           -0.986307	           -0.232311	            0.006130	           -0.833667	           -0.225280	           -0.038692	            0.018811
            1.265000	            0.001900	            1.438390	            0.877446	           -0.233013	            0.005581	           -0.255695	           -0.094907	           -0.507326	           -0.246366	            0.563055	           -0.362417	           -1.080900	           -0.232311	            0.006130	           -0.833667	           -0.225134	           -0.085754	           -0.037908
            1.265500	            0.231750	            1.076920	            1.104611	           -0.233013	            0.005581	           -0.255695	           -0.160658	           -0.211679	           -0.178755	            0.654843	            0.189697	           -0.891256	           -0.232311	            0.006130	           -0.833667	           -0.243877	           -0.095342	           -0.019084
